<?xml version="1.0" encoding="UTF-8"?>
<svg xmlns="http://www.w3.org/2000/svg" xmlns:xlink="http://www.w3.org/1999/xlink" width="2400" height="1680" viewBox="0 0 2400 1680">

<path fill-rule="evenodd" fill="rgb(89.84375%, 99.609375%, 100%)" fill-opacity="1" d="M 1200 -151.21875 C 1747.429688 -151.21875 2191.21875 292.570312 2191.21875 840 C 2191.21875 1387.433594 1747.429688 1831.214844 1200 1831.214844 C 652.566406 1831.214844 208.785156 1387.433594 208.785156 840 C 208.785156 292.570312 652.566406 -151.21875 1200 -151.21875 "/>
<path fill-rule="evenodd" fill="rgb(70.117188%, 97.264099%, 98.826599%)" fill-opacity="1" d="M 1200 18.871094 C 1653.5 18.871094 2021.128906 386.5 2021.128906 840 C 2021.128906 1293.5 1653.5 1661.136719 1200 1661.136719 C 746.5 1661.136719 378.863281 1293.5 378.863281 840 C 378.863281 386.5 746.5 18.871094 1200 18.871094 "/>
<path fill-rule="evenodd" fill="rgb(54.492188%, 86.326599%, 87.889099%)" fill-opacity="1" d="M 1200 171.359375 C 1569.28125 171.359375 1868.640625 470.71875 1868.640625 840 C 1868.640625 1209.277344 1569.28125 1508.640625 1200 1508.640625 C 830.722656 1508.640625 531.359375 1209.277344 531.359375 840 C 531.359375 470.71875 830.722656 171.359375 1200 171.359375 "/>
<path fill-rule="evenodd" fill="rgb(41.184998%, 76.171875%, 78.125%)" fill-opacity="1" d="M 1200 359.050781 C 1465.621094 359.050781 1680.949219 574.378906 1680.949219 840 C 1680.949219 1105.621094 1465.621094 1320.949219 1200 1320.949219 C 934.378906 1320.949219 719.050781 1105.621094 719.050781 840 C 719.050781 574.378906 934.378906 359.050781 1200 359.050781 "/>
<path fill-rule="evenodd" fill="rgb(33.738708%, 64.256287%, 65.818787%)" fill-opacity="1" d="M 1200 511.550781 C 1381.398438 511.550781 1528.449219 658.601562 1528.449219 840 C 1528.449219 1021.398438 1381.398438 1168.453125 1200 1168.453125 C 1018.601562 1168.453125 871.546875 1021.398438 871.546875 840 C 871.546875 658.601562 1018.601562 511.550781 1200 511.550781 "/>
<path fill-rule="evenodd" fill="rgb(23.535156%, 53.318787%, 54.881287%)" fill-opacity="1" d="M 1200 652.308594 C 1303.660156 652.308594 1387.691406 736.34375 1387.691406 840 C 1387.691406 943.65625 1303.660156 1027.6875 1200 1027.6875 C 1096.339844 1027.6875 1012.308594 943.65625 1012.308594 840 C 1012.308594 736.34375 1096.339844 652.308594 1200 652.308594 "/>
<path fill-rule="evenodd" fill="rgb(0%, 0%, 0%)" fill-opacity="1" d="M 1153.53125 1210.992188 C 1142.589844 1211.003906 1131.738281 1211.023438 1120.96875 1211.050781 L 1092.410156 1202.167969 L 1080 1202.929688 L 1060.050781 1207.058594 L 1057.890625 1202.242188 L 1046.019531 1201.375 L 1033.621094 1205.367188 L 1022.828125 1199.628906 L 1002.339844 1209.160156 L 971.597656 1209.703125 L 947.324219 1211.753906 L 938.15625 1202.746094 L 920.898438 1203.054688 L 912.269531 1194.578125 L 898.246094 1202.914062 L 892.855469 1199.773438 L 888.539062 1199.3125 L 854.183594 1196.1875 L 834.472656 1203.492188 L 805.484375 1198.789062 L 793.886719 1208.273438 L 782.871094 1202.089844 L 767.21875 1208.164062 L 756.78125 1211.828125 L 705.761719 1202.878906 L 695.324219 1213.5 L 682.570312 1211.984375 L 673.871094 1212.71875 L 659.378906 1216.453125 L 652.601562 1217.328125 C 605.585938 1219.046875 578.851562 1221.019531 578.851562 1223.113281 C 578.851562 1229.820312 852.523438 1235.257812 1190.109375 1235.257812 C 1527.699219 1235.257812 1801.371094 1229.820312 1801.371094 1223.113281 C 1801.371094 1219.972656 1741.28125 1217.109375 1642.691406 1214.953125 L 1642.691406 1213.902344 L 1604.929688 1201.5 L 1592.53125 1202.039062 L 1572.570312 1205.8125 L 1570.410156 1200.960938 L 1558.550781 1199.882812 L 1546.140625 1203.65625 L 1535.359375 1197.722656 L 1514.859375 1206.894531 L 1484.121094 1206.894531 L 1459.851562 1208.511719 L 1450.679688 1199.34375 L 1433.421875 1199.34375 L 1424.789062 1190.714844 L 1410.769531 1198.804688 L 1405.378906 1195.566406 L 1401.058594 1195.027344 L 1366.710938 1191.292969 L 1347 1198.25 L 1318.011719 1193.03125 L 1306.410156 1202.308594 L 1295.398438 1195.929688 L 1279.738281 1201.730469 L 1269.308594 1205.207031 L 1218.289062 1195.351562 L 1207.851562 1205.785156 L 1195.101562 1204.046875 L 1186.398438 1204.628906 L 1171.898438 1208.105469 L 1156.25 1209.847656 L 1153.53125 1210.992188 "/>
<path fill-rule="evenodd" fill="rgb(68.554688%, 20.384216%, 21.580505%)" fill-opacity="1" d="M 1161.679688 1029.261719 L 1169.25 1037.707031 L 1175.980469 1066.660156 L 1090.058594 1066.664062 L 1140.96875 1050.125 L 1138.398438 1032.195312 L 1161.679688 1029.261719 "/>
<path fill-rule="evenodd" fill="rgb(66.209412%, 66.992188%, 68.164062%)" fill-opacity="1" d="M 1297.609375 1119.011719 C 1298.46875 1148.289062 1310.53125 1174.796875 1329.679688 1194.339844 C 1349.761719 1214.832031 1377.640625 1227.679688 1408.578125 1228.058594 L 1408.578125 1228.085938 L 1408.820312 1228.0625 C 1439.890625 1228.375 1468.128906 1216.078125 1488.679688 1195.945312 C 1508.230469 1176.785156 1520.820312 1150.527344 1522.261719 1121.285156 L 1540.589844 1121.46875 C 1540.960938 1121.472656 1541.378906 1121.464844 1541.828125 1121.441406 C 1547.140625 1121.179688 1552.078125 1118.941406 1555.691406 1115.453125 C 1559.429688 1111.847656 1561.820312 1106.886719 1561.871094 1101.320312 C 1561.878906 1100.941406 1561.871094 1100.546875 1561.851562 1100.128906 L 1561.839844 1100.128906 C 1561.109375 1085.214844 1558.160156 1070.988281 1553.378906 1057.585938 L 1563.71875 1057.6875 C 1564.589844 1057.699219 1565.441406 1057.625 1566.269531 1057.476562 C 1569.371094 1056.921875 1571.988281 1055.351562 1573.878906 1053.09375 C 1575.71875 1050.882812 1576.789062 1048.066406 1576.820312 1044.972656 C 1576.828125 1044.121094 1576.761719 1043.253906 1576.601562 1042.375 L 1566.941406 988.378906 C 1566.328125 984.933594 1564.429688 981.847656 1561.878906 979.65625 C 1559.289062 977.433594 1555.929688 976.035156 1552.429688 976 L 1499.75 975.46875 L 1512.558594 916.996094 L 1609.878906 893.710938 L 1613.199219 892.082031 L 1636.621094 873.730469 L 1636.589844 873.699219 L 1661.019531 873.945312 C 1666.839844 874.003906 1672.140625 871.695312 1675.980469 867.929688 C 1679.820312 864.164062 1682.238281 858.933594 1682.289062 853.148438 L 1683.03125 780.589844 L 1683.050781 780.589844 L 1683.03125 780.351562 C 1683.289062 754.511719 1672.980469 730.933594 1656.148438 713.765625 C 1639.378906 696.644531 1616.121094 685.871094 1590.410156 685.550781 L 1590.410156 685.519531 L 1590.171875 685.546875 L 1483.300781 684.464844 C 1477.480469 684.40625 1472.179688 686.714844 1468.339844 690.480469 C 1464.5 694.242188 1462.078125 699.472656 1462.03125 705.261719 L 1460.550781 850.855469 C 1460.488281 856.675781 1462.800781 861.972656 1466.570312 865.8125 C 1470.328125 869.65625 1475.558594 872.070312 1481.351562 872.128906 L 1489.890625 872.214844 L 1489.621094 899.363281 L 1456.25 898.832031 L 1456.441406 879.910156 C 1456.460938 878.175781 1456.351562 876.492188 1456.109375 874.882812 C 1455.089844 867.84375 1451.769531 861.167969 1446.980469 856.222656 C 1441.898438 850.976562 1435.148438 847.585938 1427.570312 847.507812 C 1426.199219 847.492188 1424.859375 847.578125 1423.550781 847.769531 C 1383.441406 853.605469 1344.488281 857.511719 1307.050781 858.875 C 1269.828125 860.230469 1234.171875 859.054688 1200.441406 854.742188 C 1199.539062 854.628906 1198.5 854.566406 1197.308594 854.554688 C 1189.429688 854.472656 1182.339844 857.824219 1177.011719 863.132812 C 1171.898438 868.21875 1168.398438 875.140625 1167.460938 882.496094 C 1167.328125 883.570312 1167.25 884.816406 1167.230469 886.230469 L 1167.109375 898.816406 L 1166.660156 899.277344 C 1166.570312 899.371094 1134.03125 932.308594 1180.261719 954.996094 C 1191.121094 960.328125 1203.558594 970.328125 1213.140625 982.953125 C 1219.769531 991.6875 1224.941406 1001.609375 1227.089844 1011.957031 C 1229.160156 1021.898438 1228.429688 1032.308594 1223.429688 1042.480469 C 1221.558594 1046.292969 1219.089844 1050.109375 1215.941406 1053.890625 C 1215.769531 1054.097656 1215.589844 1054.304688 1215.410156 1054.515625 L 1292.238281 1057.628906 L 1289.75 1118.933594 Z M 1082.71875 1063.554688 L 1033.660156 1063.058594 C 1027.128906 1037.253906 1014.449219 1015.976562 997.996094 999.335938 L 1039.699219 911.605469 L 1039.808594 911.339844 C 1045.441406 898.363281 1046.890625 888.488281 1044.710938 880.40625 C 1042.621094 872.628906 1037.640625 867.125 1030.140625 862.789062 C 1030.53125 850.511719 1026.871094 838.796875 1021.988281 828.785156 L 1041.941406 795.84375 C 1044.328125 796.671875 1046.890625 797.132812 1049.558594 797.160156 C 1062.820312 797.292969 1073.679688 786.652344 1073.808594 773.394531 C 1073.941406 760.3125 1063.589844 749.570312 1050.578125 749.15625 C 1047.351562 744.808594 1043.648438 740.445312 1039.558594 736.3125 C 1025.019531 721.59375 1005.351562 708.875 985.273438 708.671875 C 980.933594 708.628906 976.984375 710.34375 974.128906 713.144531 C 972.285156 714.953125 970.882812 717.214844 970.109375 719.75 C 969.875 719.703125 969.644531 719.675781 969.40625 719.671875 C 963.632812 719.613281 958.8125 733.261719 958.640625 750.15625 C 958.472656 767.050781 963.015625 780.792969 968.789062 780.851562 C 968.929688 780.855469 969.070312 780.84375 969.210938 780.828125 C 969.828125 783.835938 971.300781 786.53125 973.363281 788.636719 C 976.164062 791.496094 980.058594 793.289062 984.367188 793.335938 L 990.183594 793.394531 L 966.40625 836.21875 L 956.015625 830.488281 L 906.835938 915.609375 L 905.804688 918.484375 L 899.511719 955.765625 C 880.378906 954.625 861.21875 957.019531 843.515625 963.023438 C 811.03125 974.042969 783.5625 997.136719 770.09375 1032.734375 L 765.4375 1045.046875 L 778.570312 1044.441406 C 779.527344 1044.394531 780.476562 1044.355469 781.421875 1044.3125 C 776.683594 1050.851562 772.628906 1057.925781 769.367188 1065.425781 C 763.578125 1078.742188 760.289062 1093.398438 760.101562 1108.808594 L 760.074219 1108.808594 L 760.097656 1109.046875 C 759.78125 1140.117188 772.078125 1168.359375 792.214844 1188.902344 C 812.296875 1209.394531 840.175781 1222.246094 871.117188 1222.621094 L 871.113281 1222.652344 L 871.355469 1222.628906 C 902.421875 1222.941406 930.664062 1210.644531 951.210938 1190.511719 C 970.734375 1171.378906 983.320312 1145.171875 984.792969 1115.980469 L 1017.101562 1116.175781 C 1017.46875 1116.179688 1017.859375 1116.171875 1018.289062 1116.148438 L 1080.558594 1116.777344 Z M 1469.660156 916.335938 L 1494.871094 916.738281 L 1485.199219 960.882812 C 1485.210938 960.367188 1485.21875 959.855469 1485.210938 959.339844 C 1485.199219 947.953125 1482.191406 935.421875 1475.859375 924.839844 C 1474.058594 921.832031 1472 918.976562 1469.660156 916.335938 "/>
<path fill-rule="evenodd" fill="rgb(37.646484%, 37.646484%, 38.426208%)" fill-opacity="1" d="M 1339.480469 1119.4375 C 1340.421875 1137.160156 1347.890625 1153.171875 1359.550781 1165.066406 C 1372.140625 1177.914062 1389.609375 1185.976562 1409 1186.238281 L 1409 1186.265625 L 1409.238281 1186.242188 C 1428.761719 1186.4375 1446.5 1178.71875 1459.398438 1166.074219 C 1471.308594 1154.410156 1479.101562 1138.550781 1480.390625 1120.859375 L 1504.960938 1121.109375 C 1503.558594 1145.570312 1492.949219 1167.523438 1476.558594 1183.585938 C 1459.21875 1200.578125 1435.429688 1210.976562 1409.28125 1210.777344 L 1409.28125 1210.75 L 1409.039062 1210.777344 C 1382.769531 1210.511719 1359.078125 1199.617188 1342.039062 1182.226562 C 1325.96875 1165.828125 1315.800781 1143.660156 1314.910156 1119.1875 L 1339.480469 1119.4375 "/>
<path fill-rule="evenodd" fill="rgb(29.417419%, 29.417419%, 30.200195%)" fill-opacity="1" d="M 1473.03125 1147.457031 L 1499.46875 1147.980469 C 1502.53125 1139.519531 1504.421875 1130.5 1504.960938 1121.109375 L 1480.390625 1120.859375 C 1479.699219 1130.378906 1477.121094 1139.367188 1473.03125 1147.457031 "/>
<path fill-rule="evenodd" fill="rgb(51.756287%, 52.539062%, 53.318787%)" fill-opacity="1" d="M 1365.710938 1145.339844 L 1453.039062 1147.0625 C 1458.550781 1139.53125 1462.128906 1130.503906 1463.058594 1120.683594 L 1436.660156 1120.417969 C 1434.390625 1133.222656 1423.140625 1142.886719 1409.710938 1142.75 C 1396.269531 1142.613281 1385.21875 1132.726562 1383.199219 1119.878906 L 1356.808594 1119.609375 C 1357.5 1129.078125 1360.679688 1137.875 1365.710938 1145.339844 "/>
<path fill-rule="evenodd" fill="rgb(29.417419%, 29.417419%, 30.200195%)" fill-opacity="1" d="M 1319.28125 1144.425781 L 1345.730469 1144.949219 C 1342.148438 1137.105469 1339.960938 1128.496094 1339.480469 1119.4375 L 1314.910156 1119.1875 C 1315.230469 1127.949219 1316.730469 1136.414062 1319.28125 1144.425781 "/>
<path fill-rule="evenodd" fill="rgb(99.609375%, 99.609375%, 99.609375%)" fill-opacity="1" d="M 1495.171875 994.011719 L 1485.851562 994.40625 C 1485.851562 994.40625 1370.210938 921.507812 1283.71875 990.085938 L 1285.988281 972.351562 C 1285.988281 972.351562 1383.570312 898.019531 1495.171875 994.011719 "/>
<path fill-rule="evenodd" fill="rgb(66.209412%, 66.992188%, 68.164062%)" fill-opacity="1" d="M 1026.160156 881.488281 C 1027.039062 882.53125 1027.648438 883.65625 1027.980469 884.882812 C 1029.109375 889.070312 1027.929688 895.207031 1024.058594 904.1875 L 989.632812 976.617188 C 988.425781 969.1875 988.148438 960.824219 989.203125 952.027344 C 991.230469 935.085938 998.335938 916.808594 1013.410156 900.832031 C 1019.390625 894.492188 1023.5 887.992188 1026.160156 881.488281 "/>
<path fill-rule="evenodd" fill="rgb(97.65625%, 66.601562%, 45.872498%)" fill-opacity="1" d="M 1041.160156 765.394531 L 1041.148438 765.398438 C 1039.109375 762.273438 1036.570312 758.882812 1033.621094 755.421875 L 1041.160156 765.394531 "/>
<path fill-rule="evenodd" fill="rgb(97.65625%, 66.601562%, 45.872498%)" fill-opacity="1" d="M 1044.25 783.355469 L 1044.261719 783.363281 L 1044.25 783.355469 "/>
<path fill-rule="evenodd" fill="rgb(97.65625%, 66.601562%, 45.872498%)" fill-opacity="1" d="M 1049.921875 761.535156 C 1049.828125 761.535156 1049.738281 761.535156 1049.640625 761.535156 L 1049.601562 761.535156 C 1049.511719 761.539062 1049.429688 761.539062 1049.339844 761.542969 L 1049.308594 761.546875 C 1049.230469 761.550781 1049.148438 761.554688 1049.058594 761.558594 L 1049 761.5625 L 1048.761719 761.582031 L 1048.699219 761.585938 L 1048.460938 761.609375 L 1048.398438 761.617188 C 1048.21875 761.640625 1048.039062 761.664062 1047.871094 761.695312 L 1047.859375 761.695312 L 1047.851562 761.699219 C 1047.769531 761.710938 1047.691406 761.726562 1047.609375 761.742188 L 1047.558594 761.75 L 1047.328125 761.800781 L 1047.261719 761.8125 L 1047.050781 761.863281 L 1046.980469 761.878906 L 1046.761719 761.9375 L 1046.691406 761.957031 L 1046.480469 762.019531 L 1046.421875 762.035156 L 1046.21875 762.097656 L 1046.191406 762.109375 L 1046.171875 762.117188 L 1045.960938 762.183594 L 1045.898438 762.210938 L 1045.691406 762.285156 L 1045.621094 762.308594 L 1045.421875 762.390625 L 1045.359375 762.414062 L 1045.160156 762.5 L 1045.089844 762.53125 L 1044.898438 762.617188 L 1044.828125 762.652344 L 1044.679688 762.722656 L 1044.421875 762.855469 L 1044.320312 762.910156 L 1044.191406 762.980469 L 1044.089844 763.03125 L 1044.089844 763.035156 L 1043.960938 763.113281 L 1043.941406 763.125 L 1043.851562 763.175781 L 1043.679688 763.277344 L 1043.589844 763.335938 L 1043.570312 763.351562 L 1043.441406 763.433594 L 1043.328125 763.507812 L 1043.289062 763.535156 L 1043.089844 763.671875 L 1043.03125 763.71875 L 1042.878906 763.820312 L 1042.789062 763.890625 L 1042.628906 764.019531 L 1042.570312 764.066406 L 1042.460938 764.148438 L 1042.351562 764.246094 L 1042.339844 764.25 L 1042.238281 764.328125 L 1042.230469 764.34375 L 1042.121094 764.441406 L 1042.03125 764.523438 L 1041.921875 764.625 L 1041.820312 764.710938 L 1041.738281 764.785156 L 1041.601562 764.929688 L 1041.539062 764.984375 L 1041.390625 765.140625 L 1041.339844 765.191406 C 1041.28125 765.257812 1041.21875 765.324219 1041.160156 765.394531 C 1039.339844 767.421875 1038.21875 770.097656 1038.191406 773.035156 C 1038.171875 774.273438 1038.359375 775.472656 1038.710938 776.59375 L 1038.738281 776.695312 C 1038.898438 777.207031 1039.101562 777.699219 1039.328125 778.175781 L 1039.371094 778.269531 C 1039.429688 778.394531 1039.5 778.523438 1039.570312 778.644531 L 1039.621094 778.738281 C 1039.921875 779.289062 1040.269531 779.816406 1040.660156 780.3125 L 1040.71875 780.394531 C 1041.21875 781.019531 1041.78125 781.59375 1042.398438 782.105469 L 1042.449219 782.144531 L 1042.460938 782.152344 L 1042.640625 782.300781 L 1042.648438 782.304688 L 1042.648438 782.308594 L 1042.820312 782.433594 L 1042.898438 782.496094 L 1042.929688 782.519531 L 1043.070312 782.617188 L 1043.078125 782.625 L 1043.25 782.742188 L 1043.328125 782.800781 L 1043.410156 782.851562 L 1043.421875 782.859375 L 1043.601562 782.976562 L 1043.960938 783.195312 L 1043.96875 783.199219 L 1043.96875 783.203125 L 1043.980469 783.203125 L 1043.980469 783.207031 L 1043.988281 783.210938 L 1043.988281 783.214844 L 1044 783.214844 L 1044 783.21875 L 1044.011719 783.21875 L 1044.011719 783.226562 L 1044.019531 783.226562 L 1044.019531 783.230469 L 1044.03125 783.234375 L 1044.039062 783.238281 L 1044.039062 783.242188 L 1044.050781 783.246094 L 1044.058594 783.25 L 1044.058594 783.253906 L 1044.070312 783.253906 L 1044.070312 783.261719 L 1044.078125 783.261719 L 1044.078125 783.265625 L 1044.101562 783.273438 L 1044.101562 783.277344 L 1044.109375 783.28125 L 1044.261719 783.363281 L 1044.269531 783.367188 L 1044.269531 783.371094 L 1044.289062 783.378906 L 1044.300781 783.386719 L 1044.308594 783.390625 L 1044.339844 783.402344 L 1044.339844 783.410156 L 1044.488281 783.484375 L 1044.5 783.492188 L 1044.511719 783.496094 L 1044.519531 783.5 L 1044.53125 783.503906 L 1044.539062 783.507812 L 1044.539062 783.515625 L 1044.550781 783.519531 L 1044.558594 783.523438 L 1044.570312 783.527344 L 1044.578125 783.53125 L 1044.601562 783.539062 L 1044.609375 783.546875 L 1044.621094 783.550781 L 1044.699219 783.59375 L 1044.710938 783.597656 L 1044.71875 783.601562 L 1044.730469 783.605469 L 1044.738281 783.609375 L 1044.761719 783.617188 L 1044.769531 783.621094 L 1044.78125 783.628906 L 1044.78125 783.632812 L 1044.789062 783.636719 L 1044.800781 783.640625 L 1044.808594 783.644531 L 1044.820312 783.648438 L 1044.828125 783.652344 L 1044.839844 783.65625 L 1044.988281 783.726562 L 1044.988281 783.730469 L 1045.011719 783.738281 L 1045.019531 783.742188 L 1045.03125 783.746094 L 1045.039062 783.75 L 1045.050781 783.753906 L 1045.058594 783.757812 L 1045.070312 783.761719 L 1045.078125 783.765625 L 1045.101562 783.773438 L 1045.101562 783.777344 L 1045.109375 783.78125 L 1045.230469 783.835938 L 1045.238281 783.839844 L 1045.261719 783.847656 L 1045.269531 783.851562 L 1045.28125 783.855469 L 1045.289062 783.859375 L 1045.300781 783.863281 L 1045.308594 783.867188 L 1045.320312 783.871094 L 1045.328125 783.875 L 1045.339844 783.878906 L 1045.339844 783.882812 L 1045.351562 783.886719 L 1045.359375 783.890625 L 1045.371094 783.894531 L 1045.378906 783.898438 L 1045.5 783.945312 L 1045.550781 783.964844 L 1045.589844 783.980469 L 1045.640625 784 L 1045.78125 784.054688 L 1045.828125 784.070312 L 1045.878906 784.089844 L 1046.070312 784.15625 L 1046.121094 784.171875 L 1046.160156 784.1875 L 1046.359375 784.25 L 1046.410156 784.265625 L 1046.648438 784.335938 L 1046.699219 784.351562 L 1046.851562 784.390625 L 1046.898438 784.402344 L 1046.949219 784.414062 L 1047.148438 784.464844 L 1047.199219 784.476562 L 1047.25 784.484375 L 1047.449219 784.527344 L 1047.550781 784.550781 L 1047.699219 784.578125 L 1047.75 784.585938 L 1047.800781 784.597656 L 1047.851562 784.605469 L 1048.058594 784.636719 L 1048.109375 784.644531 L 1048.320312 784.675781 L 1048.371094 784.679688 L 1048.578125 784.703125 L 1048.628906 784.710938 L 1048.679688 784.714844 L 1048.738281 784.722656 L 1048.761719 784.722656 L 1048.820312 784.726562 L 1048.839844 784.730469 L 1048.871094 784.730469 L 1049.019531 784.742188 L 1049.039062 784.742188 L 1049.050781 784.746094 L 1049.070312 784.746094 L 1049.121094 784.75 L 1049.148438 784.75 L 1049.351562 784.761719 L 1049.421875 784.761719 L 1049.691406 784.769531 C 1056.101562 784.835938 1061.359375 779.683594 1061.421875 773.269531 C 1061.488281 766.855469 1056.339844 761.601562 1049.921875 761.535156 "/>
<path fill-rule="evenodd" fill="rgb(96.09375%, 52.539062%, 20.384216%)" fill-opacity="1" d="M 1033.621094 755.417969 C 1028.871094 759.753906 1025.871094 765.972656 1025.800781 772.910156 C 1025.78125 774.117188 1025.859375 775.304688 1026.019531 776.46875 L 986.191406 776.0625 L 986.699219 726.015625 C 1001.039062 726.878906 1015.839844 736.929688 1027.269531 748.496094 C 1029.539062 750.796875 1031.671875 753.125 1033.621094 755.417969 Z M 1087.191406 461.789062 C 1162.460938 377.851562 1283.019531 473.070312 1210.019531 565.898438 C 1210.019531 565.898438 1126.03125 590.988281 1117.160156 575.71875 C 1108.289062 560.441406 1138.519531 516.710938 1105.089844 494.671875 C 1071.671875 472.621094 1087.191406 461.789062 1087.191406 461.789062 Z M 1211.511719 914.367188 L 1430.671875 916.585938 L 1430.738281 916.550781 C 1434.390625 916.546875 1437.71875 916.984375 1440.738281 917.796875 C 1449.871094 920.246094 1456.550781 926.277344 1461 933.703125 C 1465.691406 941.550781 1467.921875 950.847656 1467.929688 959.300781 C 1467.929688 959.804688 1467.929688 960.300781 1467.910156 960.796875 C 1444.101562 947.347656 1417.960938 938.492188 1392.300781 935.207031 C 1363.980469 931.585938 1336.121094 934.703125 1312.359375 945.851562 C 1297.289062 952.917969 1283.929688 963.15625 1273.179688 976.878906 L 1255.300781 964.511719 C 1221.480469 943.640625 1213.339844 924.191406 1211.511719 914.367188 Z M 1522.121094 1103.992188 L 1466.511719 1103.429688 L 1340.199219 1102.152344 L 1340.199219 1102.15625 L 1268.210938 1101.425781 C 1267.359375 1101.417969 1266.628906 1101.0625 1266.070312 1100.492188 C 1265.191406 1099.59375 1264.621094 1098.222656 1264.441406 1096.648438 C 1260.660156 1061.589844 1264.179688 1033.628906 1272.910156 1011.976562 C 1276.589844 1002.828125 1281.230469 994.808594 1286.648438 987.847656 C 1372.800781 923.160156 1485.851562 994.40625 1485.851562 994.40625 L 1486.628906 994.375 C 1487.289062 994.910156 1487.949219 995.453125 1488.609375 996.003906 L 1488.628906 996.035156 C 1498.140625 1003.988281 1506.828125 1012.871094 1514.390625 1022.574219 C 1521.601562 1031.824219 1527.769531 1041.796875 1532.609375 1052.390625 L 1533.699219 1054.773438 C 1539.929688 1069.105469 1543.78125 1084.578125 1544.589844 1100.957031 L 1544.589844 1101.097656 C 1544.578125 1101.796875 1544.210938 1102.480469 1543.648438 1103.03125 C 1542.949219 1103.703125 1542.019531 1104.132812 1541.039062 1104.183594 L 1540.808594 1104.183594 Z M 918.550781 958.078125 L 995.695312 819.132812 C 1007.03125 833.769531 1024.5 863.921875 1000.859375 888.980469 C 982.894531 908.015625 974.429688 929.8125 972.007812 950.023438 C 970.789062 960.207031 971.136719 970.054688 972.601562 979.003906 C 956.003906 968.5625 937.496094 961.566406 918.550781 958.078125 Z M 802.402344 1010.867188 C 814.710938 995.980469 830.953125 985.519531 849.023438 979.390625 C 868.980469 972.621094 891.226562 971.105469 912.976562 974.707031 C 934.695312 978.304688 955.800781 987.011719 973.496094 1000.703125 C 977.335938 1003.675781 981.011719 1006.882812 984.507812 1010.320312 C 985.359375 1011.507812 986.238281 1012.609375 987.136719 1013.613281 L 987.453125 1013.328125 C 1003.179688 1029.941406 1014.710938 1051.632812 1019.199219 1078.277344 L 983.644531 1077.78125 C 983.644531 1077.78125 942.550781 999.1875 802.402344 1010.867188 "/>
<path fill-rule="evenodd" fill="rgb(92.96875%, 19.604492%, 21.580505%)" fill-opacity="1" d="M 1510.929688 992.871094 L 1550.261719 993.265625 L 1558.679688 1040.351562 L 1545.96875 1040.222656 C 1540.960938 1030.203125 1534.921875 1020.753906 1528.050781 1011.9375 C 1524.699219 1007.640625 1521.148438 1003.492188 1517.421875 999.496094 L 1517.210938 999.273438 L 1516.671875 998.695312 L 1516.289062 998.296875 L 1516.011719 998.003906 L 1515.980469 997.972656 C 1514.328125 996.242188 1512.648438 994.539062 1510.929688 992.871094 "/>
<path fill-rule="evenodd" fill="rgb(66.209412%, 66.992188%, 68.164062%)" fill-opacity="1" d="M 1307.429688 897.617188 L 1307.648438 876.195312 C 1345.609375 874.8125 1385.210938 870.839844 1426.050781 864.894531 C 1426.539062 864.820312 1426.96875 864.789062 1427.339844 864.792969 C 1430 864.820312 1432.53125 866.171875 1434.558594 868.265625 C 1436.871094 870.660156 1438.480469 873.917969 1438.988281 877.375 C 1439.109375 878.191406 1439.160156 878.964844 1439.160156 879.6875 L 1438.960938 898.949219 L 1307.429688 897.617188 "/>
<path fill-rule="evenodd" fill="rgb(99.609375%, 99.609375%, 99.609375%)" fill-opacity="1" d="M 1541.988281 986.21875 L 1553.019531 1048.675781 L 1563.621094 1045.230469 L 1553.929688 997.554688 L 1551.609375 990.425781 L 1541.988281 986.21875 "/>
<path fill-rule="evenodd" fill="rgb(66.209412%, 66.992188%, 68.164062%)" fill-opacity="1" d="M 1289.828125 876.652344 L 1289.621094 897.4375 L 1184.421875 896.375 L 1184.519531 886.457031 C 1184.519531 886.023438 1184.570312 885.425781 1184.671875 884.683594 C 1185.128906 881.089844 1186.789062 877.757812 1189.199219 875.359375 C 1191.378906 873.183594 1194.148438 871.808594 1197.078125 871.839844 C 1197.308594 871.84375 1197.699219 871.878906 1198.25 871.949219 C 1227.449219 875.683594 1258.058594 877.128906 1289.828125 876.652344 "/>
<path fill-rule="evenodd" fill="rgb(68.943787%, 34.521484%, 21.946716%)" fill-opacity="1" d="M 1001.570312 722.460938 L 1000.699219 782.109375 L 978.972656 782.78125 L 977.488281 723.8125 L 985.636719 714.066406 Z M 1022.800781 1078.328125 L 983.644531 1077.78125 C 983.644531 1077.78125 940.875 995.945312 793.738281 1011.679688 L 775.585938 1038.847656 L 828.488281 1034.019531 C 828.488281 1034.019531 915.964844 1036.789062 952.648438 1087.886719 L 983.59375 1108.519531 L 1029.410156 1106.5 Z M 1007.738281 818.828125 L 930.335938 969.160156 L 908.082031 963.609375 L 935.050781 891.066406 L 974.488281 836.082031 L 997.410156 806.007812 Z M 1211.101562 907.6875 C 1211.101562 907.6875 1206.898438 934.644531 1255.300781 964.511719 L 1277.921875 980.15625 L 1259.191406 1040.632812 L 1258.328125 1070.070312 L 1550.929688 1071.457031 L 1553.980469 1111.109375 L 1250.898438 1111.222656 L 1250.71875 1108.769531 L 1034.730469 1109.042969 L 1027.75 1070.777344 L 1206.800781 1071.0625 L 1231.789062 1047.273438 L 1243.171875 1015.179688 L 1211.871094 965.078125 L 1166.660156 933.015625 L 1162.488281 921.21875 L 1170.949219 903.734375 L 1211.101562 907.6875 "/>
<path fill-rule="evenodd" fill="rgb(51.756287%, 52.539062%, 53.318787%)" fill-opacity="1" d="M 1012.769531 943.441406 L 981.039062 942.15625 L 979.40625 982.398438 L 1001.460938 983.289062 L 1012.769531 943.441406 "/>
<path fill-rule="evenodd" fill="rgb(97.65625%, 66.601562%, 45.872498%)" fill-opacity="1" d="M 1467.609375 1081.496094 C 1472.390625 1081.5625 1476.308594 1077.742188 1476.371094 1072.96875 C 1476.429688 1068.195312 1472.609375 1064.273438 1467.839844 1064.210938 L 1357.101562 1063.09375 C 1352.320312 1063.03125 1348.398438 1066.847656 1348.339844 1071.621094 C 1348.28125 1076.394531 1352.101562 1080.316406 1356.871094 1080.378906 L 1467.609375 1081.496094 "/>
<path fill-rule="evenodd" fill="rgb(51.756287%, 52.539062%, 53.318787%)" fill-opacity="1" d="M 1444.320312 890.796875 L 1178.511719 889.316406 L 1179.058594 904.453125 L 1444.371094 908.625 L 1444.320312 890.796875 "/>
<path fill-rule="evenodd" fill="rgb(99.609375%, 99.609375%, 99.609375%)" fill-opacity="1" d="M 1009.691406 723.082031 L 1001.878906 729.160156 C 1001.878906 729.160156 1030.089844 755.109375 1032.75 766.070312 C 1035.410156 777.027344 1042.691406 750.195312 1042.691406 750.195312 L 1009.691406 723.082031 "/>
<path fill-rule="evenodd" fill="rgb(97.65625%, 66.601562%, 45.872498%)" fill-opacity="1" d="M 1444.761719 1044.089844 C 1449.53125 1044.152344 1453.449219 1040.335938 1453.511719 1035.5625 C 1453.578125 1030.785156 1449.761719 1026.867188 1444.980469 1026.804688 L 1357.46875 1025.921875 C 1352.699219 1025.855469 1348.78125 1029.675781 1348.710938 1034.449219 C 1348.648438 1039.222656 1352.46875 1043.144531 1357.238281 1043.203125 L 1444.761719 1044.089844 "/>
<path fill-rule="evenodd" fill="rgb(97.65625%, 66.601562%, 45.872498%)" fill-opacity="1" d="M 1414.121094 1010.476562 C 1418.890625 1010.539062 1422.808594 1006.71875 1422.871094 1001.945312 C 1422.929688 997.171875 1419.121094 993.253906 1414.339844 993.191406 L 1357.808594 992.617188 C 1353.03125 992.554688 1349.109375 996.375 1349.050781 1001.148438 C 1348.988281 1005.921875 1352.808594 1009.84375 1357.578125 1009.902344 L 1414.121094 1010.476562 "/>
<path fill-rule="evenodd" fill="rgb(66.209412%, 66.992188%, 68.164062%)" fill-opacity="1" d="M 872.789062 1083.105469 C 857.820312 1082.953125 845.5625 1094.964844 845.410156 1109.933594 C 845.257812 1124.90625 857.273438 1137.164062 872.242188 1137.3125 C 887.210938 1137.464844 899.46875 1125.453125 899.621094 1110.484375 C 899.773438 1095.511719 887.761719 1083.253906 872.789062 1083.105469 "/>
<path fill-rule="evenodd" fill="rgb(37.646484%, 37.646484%, 38.426208%)" fill-opacity="1" d="M 845.804688 1044.835938 C 837.269531 1048.320312 829.570312 1053.429688 823.09375 1059.777344 C 810.246094 1072.367188 802.183594 1089.839844 801.921875 1109.230469 L 801.894531 1109.230469 L 801.917969 1109.46875 C 801.71875 1128.992188 809.441406 1146.730469 822.085938 1159.632812 C 834.675781 1172.480469 852.144531 1180.542969 871.539062 1180.804688 L 871.535156 1180.832031 L 871.777344 1180.808594 C 891.296875 1181.003906 909.039062 1173.285156 921.9375 1160.640625 C 934.839844 1148 942.917969 1130.4375 943.113281 1110.949219 C 943.242188 1098.3125 940.050781 1086.425781 934.355469 1076.113281 C 945.484375 1084.929688 956.074219 1095.660156 967.621094 1108.402344 C 967.640625 1109.421875 967.652344 1110.265625 967.648438 1110.90625 L 967.625 1110.90625 L 967.648438 1111.144531 C 967.382812 1137.421875 956.492188 1161.105469 939.097656 1178.152344 C 921.757812 1195.144531 897.96875 1205.542969 871.816406 1205.34375 L 871.820312 1205.316406 L 871.578125 1205.339844 C 845.300781 1205.074219 821.617188 1194.183594 804.574219 1176.789062 C 787.578125 1159.449219 777.183594 1135.660156 777.382812 1109.511719 L 777.40625 1109.511719 L 777.382812 1109.273438 C 777.515625 1096.128906 780.304688 1083.636719 785.230469 1072.308594 C 789.894531 1061.582031 796.484375 1051.886719 804.554688 1043.652344 C 819.941406 1043.460938 833.578125 1043.84375 845.804688 1044.835938 "/>
<path fill-rule="evenodd" fill="rgb(29.417419%, 29.417419%, 30.200195%)" fill-opacity="1" d="M 940.464844 1129.460938 C 947.097656 1135.878906 953.1875 1142.992188 958.546875 1150.859375 C 964.253906 1138.808594 967.503906 1125.355469 967.648438 1111.144531 L 967.625 1110.90625 L 967.648438 1110.90625 C 967.652344 1110.265625 967.640625 1109.421875 967.621094 1108.402344 C 956.074219 1095.660156 945.484375 1084.929688 934.355469 1076.113281 C 940.050781 1086.425781 943.242188 1098.3125 943.113281 1110.949219 C 943.050781 1117.363281 942.128906 1123.570312 940.464844 1129.460938 "/>
<path fill-rule="evenodd" fill="rgb(51.756287%, 52.539062%, 53.318787%)" fill-opacity="1" d="M 831.09375 1076.65625 C 840.835938 1078.742188 851.457031 1081.472656 862.40625 1085.050781 C 865.613281 1083.761719 869.121094 1083.066406 872.789062 1083.105469 C 883.816406 1083.214844 893.234375 1089.894531 897.375 1099.386719 C 907.054688 1104.289062 916.535156 1110.011719 925.4375 1116.679688 C 925.675781 1114.726562 925.808594 1112.738281 925.828125 1110.722656 C 925.976562 1096.027344 920.140625 1082.648438 910.585938 1072.898438 C 901.03125 1063.152344 887.757812 1057.046875 873.027344 1056.898438 C 858.335938 1056.75 844.957031 1062.585938 835.207031 1072.136719 C 833.75 1073.5625 832.378906 1075.074219 831.09375 1076.65625 "/>
<path fill-rule="evenodd" fill="rgb(29.417419%, 29.417419%, 30.200195%)" fill-opacity="1" d="M 786.164062 1070.234375 C 791.160156 1070.5625 800.441406 1071.351562 812.367188 1073.203125 C 815.390625 1068.296875 819 1063.789062 823.09375 1059.777344 C 829.570312 1053.429688 837.269531 1048.320312 845.804688 1044.835938 C 833.578125 1043.84375 819.941406 1043.460938 804.554688 1043.652344 C 797.007812 1051.355469 790.753906 1060.332031 786.164062 1070.234375 "/>
<path fill-rule="evenodd" fill="rgb(97.65625%, 66.601562%, 45.872498%)" fill-opacity="1" d="M 872.789062 1083.105469 C 857.820312 1082.953125 845.5625 1094.964844 845.410156 1109.933594 C 845.257812 1124.90625 857.273438 1137.164062 872.242188 1137.3125 C 887.210938 1137.464844 899.46875 1125.453125 899.621094 1110.484375 C 899.773438 1095.511719 887.761719 1083.253906 872.789062 1083.105469 "/>
<path fill-rule="evenodd" fill="rgb(99.609375%, 99.609375%, 99.609375%)" fill-opacity="1" d="M 1009.46875 1024.695312 L 1006.589844 1038.53125 C 1006.589844 1038.53125 930.980469 953.304688 832.679688 988.074219 L 818.484375 994.085938 L 823.46875 981.109375 L 884.671875 962.761719 L 932.105469 968.558594 L 980.445312 990.285156 L 1009.46875 1024.695312 "/>
<path fill-rule="evenodd" fill="rgb(0%, 68.554688%, 93.75%)" fill-opacity="1" d="M 1478.699219 765.605469 L 1664.820312 767.488281 C 1665.460938 771.527344 1665.769531 775.671875 1665.738281 779.886719 L 1665.71875 779.886719 L 1665.738281 780.125 L 1665.011719 852.921875 C 1665 853.949219 1664.558594 854.890625 1663.859375 855.570312 C 1663.171875 856.25 1662.238281 856.667969 1661.25 856.660156 L 1481.578125 854.84375 C 1480.550781 854.832031 1479.609375 854.394531 1478.929688 853.699219 C 1478.25 853.003906 1477.828125 852.074219 1477.839844 851.082031 Z M 1659.898438 750.148438 L 1478.878906 748.316406 L 1479.308594 705.484375 C 1479.320312 704.457031 1479.761719 703.519531 1480.449219 702.839844 C 1481.148438 702.15625 1482.078125 701.738281 1483.070312 701.75 L 1589.710938 702.828125 L 1589.710938 702.855469 L 1589.949219 702.832031 C 1610.988281 703.042969 1630.050781 711.855469 1643.789062 725.878906 C 1650.601562 732.828125 1656.109375 741.058594 1659.898438 750.148438 "/>
<path fill-rule="evenodd" fill="rgb(99.609375%, 99.609375%, 99.609375%)" fill-opacity="1" d="M 1447.128906 869.207031 C 1447.128906 869.207031 1314.238281 896.761719 1194.429688 869.421875 L 1441.039062 856.945312 L 1447.128906 869.207031 "/>
<path fill-rule="evenodd" fill="rgb(97.65625%, 66.601562%, 45.872498%)" fill-opacity="1" d="M 1603.679688 792.492188 L 1512.300781 791.566406 C 1507.191406 791.515625 1502.960938 795.65625 1502.910156 800.769531 L 1502.71875 819.355469 C 1502.671875 824.464844 1506.808594 828.6875 1511.921875 828.742188 L 1603.308594 829.664062 C 1608.421875 829.71875 1612.640625 825.578125 1612.699219 820.464844 L 1612.878906 801.878906 C 1612.941406 796.769531 1608.800781 792.542969 1603.679688 792.492188 "/>
<path fill-rule="evenodd" fill="rgb(3.529358%, 48.631287%, 59.959412%)" fill-opacity="1" d="M 1496.75 696.816406 L 1495.378906 864.574219 L 1466.5 859.914062 L 1469.140625 699.183594 L 1496.75 696.816406 "/>
<path fill-rule="evenodd" fill="rgb(99.609375%, 99.609375%, 99.609375%)" fill-opacity="1" d="M 1576.261719 695.390625 L 1584.859375 703.101562 C 1584.859375 703.101562 1641.410156 723.222656 1643.03125 759.71875 C 1644.648438 796.214844 1642.378906 861.621094 1642.378906 861.621094 L 1673.011719 861.3125 L 1672.550781 748.515625 L 1631.359375 703.4375 L 1576.261719 695.390625 "/>
<path fill-rule="evenodd" fill="rgb(99.609375%, 99.609375%, 99.609375%)" fill-opacity="1" d="M 1460.101562 960.421875 C 1458.679688 896.066406 1343.539062 910.078125 1370.261719 910.65625 L 1452.738281 912.453125 L 1474.238281 936.578125 L 1471.941406 964.777344 L 1460.101562 960.421875 "/>
<path fill-rule="nonzero" fill="rgb(0%, 0%, 0%)" fill-opacity="1" d="M 1247.210938 1098.457031 C 1247.359375 1099.800781 1247.609375 1101.121094 1247.960938 1102.402344 L 1037.828125 1100.28125 C 1038.160156 1098.886719 1038.339844 1097.441406 1038.351562 1095.949219 C 1038.351562 1095.648438 1038.339844 1095.285156 1038.320312 1094.871094 C 1038.058594 1089.480469 1037.550781 1084.242188 1036.820312 1079.160156 L 1202.75 1080.835938 C 1211.011719 1080.824219 1212.699219 1081.613281 1222.28125 1072.394531 C 1229.761719 1065.195312 1235.210938 1057.703125 1238.941406 1050.089844 C 1245.820312 1036.078125 1246.871094 1021.90625 1244.070312 1008.46875 C 1241.359375 995.4375 1235.019531 983.171875 1226.929688 972.519531 C 1215.699219 957.714844 1200.898438 945.882812 1187.871094 939.484375 C 1169.328125 930.386719 1173.660156 919.09375 1176.980469 914.019531 L 1430.671875 916.585938 L 1430.738281 916.550781 C 1434.390625 916.546875 1437.71875 916.984375 1440.738281 917.796875 C 1449.871094 920.246094 1456.550781 926.277344 1461 933.703125 C 1465.691406 941.550781 1467.921875 950.847656 1467.929688 959.300781 C 1467.929688 959.804688 1467.929688 960.300781 1467.910156 960.796875 C 1444.101562 947.347656 1417.960938 938.492188 1392.300781 935.207031 C 1363.980469 931.585938 1336.121094 934.703125 1312.359375 945.851562 C 1288.230469 957.167969 1268.46875 976.617188 1256.820312 1005.492188 C 1247.078125 1029.660156 1243.109375 1060.402344 1247.210938 1098.457031 Z M 1221.988281 1126.835938 L 1227.160156 1126.949219 C 1232.351562 1127.0625 1236.78125 1123.324219 1237.679688 1118.367188 L 1266.691406 1118.660156 C 1267.121094 1118.691406 1267.550781 1118.707031 1267.980469 1118.710938 L 1540.589844 1121.46875 C 1540.960938 1121.472656 1541.378906 1121.464844 1541.828125 1121.441406 C 1547.140625 1121.179688 1552.078125 1118.941406 1555.691406 1115.453125 C 1559.429688 1111.847656 1561.820312 1106.886719 1561.871094 1101.320312 C 1561.878906 1100.941406 1561.871094 1100.546875 1561.851562 1100.128906 L 1561.839844 1100.128906 C 1561.109375 1085.214844 1558.160156 1070.988281 1553.378906 1057.585938 L 1563.71875 1057.6875 C 1564.589844 1057.699219 1565.441406 1057.625 1566.269531 1057.476562 C 1569.371094 1056.921875 1571.988281 1055.351562 1573.878906 1053.09375 C 1575.71875 1050.882812 1576.789062 1048.066406 1576.820312 1044.972656 C 1576.828125 1044.121094 1576.761719 1043.253906 1576.601562 1042.375 L 1566.941406 988.378906 C 1566.328125 984.933594 1564.429688 981.847656 1561.878906 979.65625 C 1559.289062 977.433594 1555.929688 976.035156 1552.429688 976 L 1499.75 975.46875 L 1512.558594 916.996094 L 1609.878906 893.710938 L 1613.199219 892.082031 L 1636.621094 873.730469 L 1636.589844 873.699219 L 1661.019531 873.945312 C 1666.839844 874.003906 1672.140625 871.695312 1675.980469 867.929688 C 1679.820312 864.164062 1682.238281 858.933594 1682.289062 853.148438 L 1683.03125 780.589844 L 1683.050781 780.589844 L 1683.03125 780.351562 C 1683.289062 754.511719 1672.980469 730.933594 1656.148438 713.765625 C 1639.378906 696.644531 1616.121094 685.871094 1590.410156 685.550781 L 1590.410156 685.519531 L 1590.171875 685.546875 L 1483.300781 684.464844 C 1477.480469 684.40625 1472.179688 686.714844 1468.339844 690.480469 C 1464.5 694.242188 1462.078125 699.472656 1462.03125 705.261719 L 1460.550781 850.855469 C 1460.488281 856.675781 1462.800781 861.972656 1466.570312 865.8125 C 1470.328125 869.65625 1475.558594 872.070312 1481.351562 872.128906 L 1489.890625 872.214844 L 1489.621094 899.363281 L 1456.25 898.832031 L 1456.441406 879.910156 C 1456.460938 878.175781 1456.351562 876.492188 1456.109375 874.882812 C 1455.089844 867.84375 1451.769531 861.167969 1446.980469 856.222656 C 1441.898438 850.976562 1435.148438 847.585938 1427.570312 847.507812 C 1426.199219 847.492188 1424.859375 847.578125 1423.550781 847.769531 C 1383.441406 853.605469 1344.488281 857.511719 1307.050781 858.875 C 1269.828125 860.230469 1234.171875 859.054688 1200.441406 854.742188 C 1199.539062 854.628906 1198.5 854.566406 1197.308594 854.554688 C 1189.429688 854.472656 1182.339844 857.824219 1177.011719 863.132812 C 1171.898438 868.21875 1168.398438 875.140625 1167.460938 882.496094 C 1167.328125 883.570312 1167.25 884.816406 1167.230469 886.230469 L 1167.109375 898.816406 L 1166.660156 899.277344 C 1166.570312 899.371094 1134.03125 932.308594 1180.261719 954.996094 C 1191.121094 960.328125 1203.558594 970.328125 1213.140625 982.953125 C 1219.769531 991.6875 1224.941406 1001.609375 1227.089844 1011.957031 C 1229.160156 1021.898438 1228.429688 1032.308594 1223.429688 1042.480469 C 1221.558594 1046.292969 1219.089844 1050.109375 1215.941406 1053.890625 C 1212.878906 1057.5625 1209.191406 1061.203125 1204.789062 1064.789062 L 1190.910156 1064.648438 L 1033.660156 1063.058594 C 1027.128906 1037.253906 1014.449219 1015.976562 997.996094 999.335938 L 1039.699219 911.605469 L 1039.808594 911.339844 C 1045.441406 898.363281 1046.890625 888.488281 1044.710938 880.40625 C 1042.621094 872.628906 1037.640625 867.125 1030.140625 862.789062 C 1030.53125 850.511719 1026.871094 838.796875 1021.988281 828.785156 L 1041.941406 795.84375 C 1044.328125 796.671875 1046.890625 797.132812 1049.558594 797.160156 C 1062.820312 797.292969 1073.679688 786.652344 1073.808594 773.394531 C 1073.941406 760.3125 1063.589844 749.570312 1050.578125 749.15625 C 1047.351562 744.808594 1043.648438 740.445312 1039.558594 736.3125 C 1025.019531 721.59375 1005.351562 708.875 985.273438 708.671875 C 980.933594 708.628906 976.984375 710.34375 974.128906 713.144531 C 972.285156 714.953125 970.882812 717.214844 970.109375 719.75 C 969.875 719.703125 969.644531 719.675781 969.40625 719.671875 C 963.632812 719.613281 958.8125 733.261719 958.640625 750.15625 C 958.472656 767.050781 963.015625 780.792969 968.789062 780.851562 C 968.929688 780.855469 969.070312 780.84375 969.210938 780.828125 C 969.828125 783.835938 971.300781 786.53125 973.363281 788.636719 C 976.164062 791.496094 980.058594 793.289062 984.367188 793.335938 L 990.183594 793.394531 L 966.40625 836.21875 L 956.015625 830.488281 L 906.835938 915.609375 L 905.804688 918.484375 L 899.511719 955.765625 C 880.378906 954.625 861.21875 957.019531 843.515625 963.023438 C 811.03125 974.042969 783.5625 997.136719 770.09375 1032.734375 L 765.4375 1045.046875 L 778.570312 1044.441406 C 779.527344 1044.394531 780.476562 1044.355469 781.421875 1044.3125 C 776.683594 1050.851562 772.628906 1057.925781 769.367188 1065.425781 C 763.578125 1078.742188 760.289062 1093.398438 760.101562 1108.808594 L 760.074219 1108.808594 L 760.097656 1109.046875 C 759.78125 1140.117188 772.078125 1168.359375 792.214844 1188.902344 C 812.296875 1209.394531 840.175781 1222.246094 871.117188 1222.621094 L 871.113281 1222.652344 L 871.355469 1222.628906 C 902.421875 1222.941406 930.664062 1210.644531 951.210938 1190.511719 C 970.734375 1171.378906 983.320312 1145.171875 984.792969 1115.980469 L 1017.101562 1116.175781 C 1017.46875 1116.179688 1017.859375 1116.171875 1018.289062 1116.148438 L 1141.378906 1117.394531 C 1142.511719 1121.824219 1146.5 1125.167969 1151.28125 1125.273438 L 1166.679688 1125.613281 L 1166.671875 1125.628906 L 1222.011719 1126.480469 Z M 1603.679688 792.492188 L 1512.300781 791.566406 C 1507.191406 791.515625 1502.960938 795.65625 1502.910156 800.769531 L 1502.71875 819.355469 C 1502.671875 824.464844 1506.808594 828.6875 1511.921875 828.742188 L 1603.308594 829.664062 C 1608.421875 829.71875 1612.640625 825.578125 1612.699219 820.464844 L 1612.878906 801.878906 C 1612.941406 796.769531 1608.800781 792.542969 1603.679688 792.492188 Z M 1659.898438 750.148438 L 1478.878906 748.316406 L 1479.308594 705.484375 C 1479.320312 704.457031 1479.761719 703.519531 1480.449219 702.839844 C 1481.148438 702.15625 1482.078125 701.738281 1483.070312 701.75 L 1589.710938 702.828125 L 1589.710938 702.855469 L 1589.949219 702.832031 C 1610.988281 703.042969 1630.050781 711.855469 1643.789062 725.878906 C 1650.601562 732.828125 1656.109375 741.058594 1659.898438 750.148438 Z M 1478.699219 765.605469 L 1664.820312 767.488281 C 1665.460938 771.527344 1665.769531 775.671875 1665.738281 779.886719 L 1665.71875 779.886719 L 1665.738281 780.125 L 1665.011719 852.921875 C 1665 853.949219 1664.558594 854.890625 1663.859375 855.570312 C 1663.171875 856.25 1662.238281 856.667969 1661.25 856.660156 L 1481.578125 854.84375 C 1480.550781 854.832031 1479.609375 854.394531 1478.929688 853.699219 C 1478.25 853.003906 1477.828125 852.074219 1477.839844 851.082031 Z M 872.789062 1083.105469 C 857.820312 1082.953125 845.5625 1094.964844 845.410156 1109.933594 C 845.257812 1124.90625 857.273438 1137.164062 872.242188 1137.3125 C 887.210938 1137.464844 899.46875 1125.453125 899.621094 1110.484375 C 899.773438 1095.511719 887.761719 1083.253906 872.789062 1083.105469 Z M 845.804688 1044.835938 C 837.269531 1048.320312 829.570312 1053.429688 823.09375 1059.777344 C 810.246094 1072.367188 802.183594 1089.839844 801.921875 1109.230469 L 801.894531 1109.230469 L 801.917969 1109.46875 C 801.71875 1128.992188 809.441406 1146.730469 822.085938 1159.632812 C 834.675781 1172.480469 852.144531 1180.542969 871.539062 1180.804688 L 871.535156 1180.832031 L 871.777344 1180.808594 C 891.296875 1181.003906 909.039062 1173.285156 921.9375 1160.640625 C 934.839844 1148 942.917969 1130.4375 943.113281 1110.949219 C 943.242188 1098.3125 940.050781 1086.425781 934.355469 1076.113281 C 945.484375 1084.929688 956.074219 1095.660156 967.621094 1108.402344 C 967.640625 1109.421875 967.652344 1110.265625 967.648438 1110.90625 L 967.625 1110.90625 L 967.648438 1111.144531 C 967.382812 1137.421875 956.492188 1161.105469 939.097656 1178.152344 C 921.757812 1195.144531 897.96875 1205.542969 871.816406 1205.34375 L 871.820312 1205.316406 L 871.578125 1205.339844 C 845.300781 1205.074219 821.617188 1194.183594 804.574219 1176.789062 C 787.578125 1159.449219 777.183594 1135.660156 777.382812 1109.511719 L 777.40625 1109.511719 L 777.382812 1109.273438 C 777.515625 1096.128906 780.304688 1083.636719 785.230469 1072.308594 C 789.894531 1061.582031 796.484375 1051.886719 804.554688 1043.652344 C 819.941406 1043.460938 833.578125 1043.84375 845.804688 1044.835938 Z M 835.207031 1072.136719 C 844.957031 1062.585938 858.335938 1056.75 873.027344 1056.898438 C 887.757812 1057.046875 901.03125 1063.152344 910.585938 1072.898438 C 920.140625 1082.648438 925.976562 1096.027344 925.828125 1110.722656 C 925.679688 1125.453125 919.574219 1138.726562 909.824219 1148.28125 C 900.128906 1157.785156 886.839844 1163.605469 872.238281 1163.523438 L 872.242188 1163.496094 L 872.003906 1163.519531 C 857.273438 1163.371094 843.996094 1157.269531 834.445312 1147.519531 C 824.941406 1137.820312 819.117188 1124.535156 819.203125 1109.933594 L 819.226562 1109.933594 L 819.203125 1109.695312 C 819.351562 1094.964844 825.457031 1081.691406 835.207031 1072.136719 Z M 982.144531 1098.675781 C 922.507812 1032.398438 880.308594 1023.949219 791.835938 1026.578125 C 804.464844 1003.144531 825.152344 987.484375 849.023438 979.390625 C 868.980469 972.621094 891.226562 971.101562 912.976562 974.707031 C 934.695312 978.304688 955.800781 987.015625 973.496094 1000.703125 C 1002.640625 1023.246094 1019.238281 1058.496094 1021.058594 1095.660156 L 1021.058594 1095.792969 C 1021.058594 1096.515625 1020.710938 1097.195312 1020.160156 1097.726562 C 1019.449219 1098.402344 1018.5 1098.835938 1017.46875 1098.886719 L 1017.25 1098.886719 Z M 1414.121094 1010.476562 C 1418.890625 1010.539062 1422.808594 1006.71875 1422.871094 1001.945312 C 1422.929688 997.171875 1419.121094 993.253906 1414.339844 993.191406 L 1357.808594 992.617188 C 1353.03125 992.554688 1349.109375 996.375 1349.050781 1001.148438 C 1348.988281 1005.921875 1352.808594 1009.84375 1357.578125 1009.902344 Z M 1444.761719 1044.089844 C 1449.53125 1044.152344 1453.449219 1040.335938 1453.511719 1035.5625 C 1453.578125 1030.785156 1449.761719 1026.867188 1444.980469 1026.804688 L 1357.46875 1025.921875 C 1352.699219 1025.855469 1348.78125 1029.675781 1348.710938 1034.449219 C 1348.648438 1039.222656 1352.46875 1043.144531 1357.238281 1043.203125 Z M 1467.609375 1081.496094 C 1472.390625 1081.5625 1476.308594 1077.742188 1476.371094 1072.96875 C 1476.429688 1068.195312 1472.609375 1064.273438 1467.839844 1064.210938 L 1357.101562 1063.09375 C 1352.320312 1063.03125 1348.398438 1066.847656 1348.339844 1071.621094 C 1348.28125 1076.394531 1352.101562 1080.316406 1356.871094 1080.378906 Z M 1469.660156 916.335938 L 1494.871094 916.738281 L 1485.199219 960.882812 C 1485.210938 960.367188 1485.21875 959.855469 1485.210938 959.339844 C 1485.199219 947.953125 1482.191406 935.421875 1475.859375 924.839844 C 1474.058594 921.832031 1472 918.976562 1469.660156 916.335938 Z M 1289.828125 876.652344 L 1289.621094 897.4375 L 1184.421875 896.375 L 1184.519531 886.457031 C 1184.519531 886.023438 1184.570312 885.425781 1184.671875 884.683594 C 1185.128906 881.089844 1186.789062 877.757812 1189.199219 875.359375 C 1191.378906 873.183594 1194.148438 871.808594 1197.078125 871.839844 C 1197.308594 871.84375 1197.699219 871.878906 1198.25 871.949219 C 1227.449219 875.683594 1258.058594 877.128906 1289.828125 876.652344 Z M 1307.429688 897.617188 L 1307.648438 876.195312 C 1345.609375 874.8125 1385.210938 870.839844 1426.050781 864.894531 C 1426.539062 864.820312 1426.96875 864.789062 1427.339844 864.792969 C 1430 864.820312 1432.53125 866.171875 1434.558594 868.265625 C 1436.871094 870.660156 1438.480469 873.917969 1438.988281 877.375 C 1439.109375 878.191406 1439.160156 878.964844 1439.160156 879.6875 L 1438.960938 898.949219 Z M 1488.609375 996.003906 L 1488.628906 996.035156 C 1498.140625 1003.988281 1506.828125 1012.871094 1514.390625 1022.574219 C 1521.601562 1031.824219 1527.769531 1041.796875 1532.609375 1052.390625 L 1533.699219 1054.773438 C 1539.929688 1069.105469 1543.78125 1084.578125 1544.589844 1100.957031 L 1544.589844 1101.097656 C 1544.578125 1101.796875 1544.21875 1102.480469 1543.648438 1103.03125 C 1542.949219 1103.703125 1542.019531 1104.132812 1541.039062 1104.183594 L 1540.808594 1104.183594 L 1268.210938 1101.425781 C 1267.359375 1101.417969 1266.628906 1101.0625 1266.070312 1100.492188 C 1265.191406 1099.59375 1264.621094 1098.222656 1264.449219 1096.648438 C 1260.660156 1061.589844 1264.179688 1033.628906 1272.910156 1011.976562 C 1282.78125 987.503906 1299.429688 971.066406 1319.71875 961.546875 C 1340.378906 951.859375 1364.929688 949.191406 1390.109375 952.414062 C 1420.890625 956.351562 1452.421875 969.039062 1478.960938 988.457031 C 1482.261719 990.871094 1485.480469 993.386719 1488.609375 996.003906 Z M 1510.929688 992.871094 L 1550.261719 993.265625 L 1558.679688 1040.351562 L 1545.96875 1040.222656 C 1540.960938 1030.203125 1534.921875 1020.753906 1528.050781 1011.9375 C 1524.699219 1007.640625 1521.148438 1003.492188 1517.421875 999.496094 L 1517.210938 999.273438 L 1516.671875 998.695312 L 1516.289062 998.296875 L 1516.011719 998.003906 L 1515.980469 997.972656 C 1514.328125 996.242188 1512.648438 994.539062 1510.929688 992.871094 Z M 1033.621094 755.421875 C 1028.871094 759.753906 1025.871094 765.972656 1025.800781 772.910156 C 1025.78125 774.117188 1025.859375 775.304688 1026.019531 776.46875 L 986.191406 776.0625 L 986.699219 726.015625 C 1001.039062 726.878906 1015.839844 736.929688 1027.269531 748.496094 C 1029.539062 750.796875 1031.671875 753.125 1033.621094 755.421875 Z M 1049.921875 761.535156 C 1049.828125 761.535156 1049.738281 761.535156 1049.640625 761.535156 L 1049.601562 761.535156 C 1049.511719 761.539062 1049.429688 761.539062 1049.339844 761.542969 L 1049.308594 761.546875 C 1049.230469 761.550781 1049.148438 761.554688 1049.058594 761.558594 L 1049 761.5625 L 1048.761719 761.582031 L 1048.699219 761.585938 L 1048.460938 761.609375 L 1048.398438 761.617188 C 1048.21875 761.640625 1048.039062 761.664062 1047.871094 761.695312 L 1047.859375 761.695312 L 1047.851562 761.699219 C 1047.769531 761.710938 1047.691406 761.726562 1047.609375 761.742188 L 1047.558594 761.75 L 1047.328125 761.800781 L 1047.261719 761.8125 L 1047.050781 761.863281 L 1046.980469 761.878906 L 1046.761719 761.9375 L 1046.691406 761.957031 L 1046.480469 762.019531 L 1046.421875 762.035156 L 1046.21875 762.097656 L 1046.191406 762.109375 L 1046.171875 762.117188 L 1045.960938 762.183594 L 1045.898438 762.210938 L 1045.691406 762.285156 L 1045.621094 762.308594 L 1045.421875 762.390625 L 1045.359375 762.414062 L 1045.160156 762.5 L 1045.089844 762.53125 L 1044.898438 762.617188 L 1044.828125 762.652344 L 1044.679688 762.722656 L 1044.421875 762.855469 L 1044.320312 762.910156 L 1044.191406 762.980469 L 1044.089844 763.03125 L 1044.089844 763.035156 L 1043.960938 763.113281 L 1043.941406 763.125 L 1043.851562 763.175781 L 1043.679688 763.277344 L 1043.589844 763.335938 L 1043.570312 763.351562 L 1043.441406 763.433594 L 1043.328125 763.507812 L 1043.289062 763.535156 L 1043.089844 763.671875 L 1043.03125 763.71875 L 1042.878906 763.820312 L 1042.789062 763.890625 L 1042.628906 764.019531 L 1042.570312 764.066406 L 1042.460938 764.148438 L 1042.351562 764.246094 L 1042.339844 764.25 L 1042.238281 764.328125 L 1042.230469 764.34375 L 1042.121094 764.441406 L 1042.03125 764.523438 L 1041.921875 764.625 L 1041.820312 764.710938 L 1041.738281 764.785156 L 1041.601562 764.929688 L 1041.539062 764.984375 L 1041.390625 765.140625 L 1041.339844 765.191406 C 1041.28125 765.257812 1041.21875 765.324219 1041.160156 765.394531 C 1039.339844 767.421875 1038.21875 770.097656 1038.191406 773.035156 C 1038.171875 774.273438 1038.359375 775.472656 1038.710938 776.59375 L 1038.738281 776.695312 C 1038.898438 777.207031 1039.101562 777.699219 1039.328125 778.175781 L 1039.371094 778.269531 C 1039.429688 778.394531 1039.5 778.523438 1039.570312 778.644531 L 1039.621094 778.738281 C 1039.921875 779.289062 1040.269531 779.816406 1040.660156 780.3125 L 1040.71875 780.394531 C 1041.21875 781.019531 1041.78125 781.59375 1042.398438 782.105469 L 1042.449219 782.144531 L 1042.460938 782.152344 L 1042.640625 782.300781 L 1042.648438 782.304688 L 1042.648438 782.308594 L 1042.820312 782.433594 L 1042.898438 782.496094 L 1042.929688 782.519531 L 1043.070312 782.617188 L 1043.078125 782.625 L 1043.25 782.742188 L 1043.328125 782.800781 L 1043.410156 782.851562 L 1043.421875 782.859375 L 1043.601562 782.976562 L 1043.960938 783.195312 L 1043.96875 783.199219 L 1043.96875 783.203125 L 1043.980469 783.203125 L 1043.980469 783.207031 L 1043.988281 783.210938 L 1043.988281 783.214844 L 1044 783.214844 L 1044 783.21875 L 1044.011719 783.21875 L 1044.011719 783.226562 L 1044.019531 783.226562 L 1044.019531 783.230469 L 1044.03125 783.234375 L 1044.039062 783.238281 L 1044.039062 783.242188 L 1044.050781 783.246094 L 1044.058594 783.25 L 1044.058594 783.253906 L 1044.070312 783.253906 L 1044.070312 783.261719 L 1044.078125 783.261719 L 1044.078125 783.265625 L 1044.101562 783.273438 L 1044.101562 783.277344 L 1044.109375 783.28125 L 1044.261719 783.363281 L 1044.269531 783.367188 L 1044.269531 783.371094 L 1044.289062 783.378906 L 1044.300781 783.386719 L 1044.308594 783.390625 L 1044.339844 783.402344 L 1044.339844 783.410156 L 1044.488281 783.484375 L 1044.5 783.492188 L 1044.511719 783.496094 L 1044.519531 783.5 L 1044.53125 783.503906 L 1044.539062 783.507812 L 1044.539062 783.515625 L 1044.550781 783.519531 L 1044.558594 783.523438 L 1044.570312 783.527344 L 1044.578125 783.53125 L 1044.601562 783.539062 L 1044.609375 783.546875 L 1044.621094 783.550781 L 1044.699219 783.59375 L 1044.710938 783.597656 L 1044.71875 783.601562 L 1044.730469 783.605469 L 1044.738281 783.609375 L 1044.761719 783.617188 L 1044.769531 783.621094 L 1044.78125 783.628906 L 1044.78125 783.632812 L 1044.789062 783.636719 L 1044.800781 783.640625 L 1044.808594 783.644531 L 1044.820312 783.648438 L 1044.828125 783.652344 L 1044.839844 783.65625 L 1044.988281 783.726562 L 1044.988281 783.730469 L 1045.011719 783.738281 L 1045.019531 783.742188 L 1045.03125 783.746094 L 1045.039062 783.75 L 1045.050781 783.753906 L 1045.058594 783.757812 L 1045.070312 783.761719 L 1045.078125 783.765625 L 1045.101562 783.773438 L 1045.101562 783.777344 L 1045.109375 783.78125 L 1045.230469 783.835938 L 1045.238281 783.839844 L 1045.261719 783.847656 L 1045.269531 783.851562 L 1045.28125 783.855469 L 1045.289062 783.859375 L 1045.300781 783.863281 L 1045.308594 783.867188 L 1045.320312 783.871094 L 1045.328125 783.875 L 1045.339844 783.878906 L 1045.339844 783.882812 L 1045.351562 783.886719 L 1045.359375 783.890625 L 1045.371094 783.894531 L 1045.378906 783.898438 L 1045.5 783.945312 L 1045.550781 783.964844 L 1045.589844 783.980469 L 1045.640625 784 L 1045.78125 784.054688 L 1045.828125 784.070312 L 1045.878906 784.089844 L 1046.070312 784.15625 L 1046.121094 784.171875 L 1046.160156 784.1875 L 1046.359375 784.25 L 1046.410156 784.265625 L 1046.648438 784.335938 L 1046.699219 784.351562 L 1046.851562 784.390625 L 1046.898438 784.402344 L 1046.949219 784.414062 L 1047.148438 784.464844 L 1047.199219 784.476562 L 1047.25 784.484375 L 1047.449219 784.527344 L 1047.550781 784.550781 L 1047.699219 784.578125 L 1047.75 784.585938 L 1047.800781 784.597656 L 1047.851562 784.605469 L 1048.058594 784.636719 L 1048.109375 784.644531 L 1048.320312 784.675781 L 1048.371094 784.679688 L 1048.578125 784.703125 L 1048.628906 784.710938 L 1048.679688 784.714844 L 1048.738281 784.722656 L 1048.761719 784.722656 L 1048.820312 784.726562 L 1048.839844 784.730469 L 1048.871094 784.730469 L 1049.019531 784.742188 L 1049.039062 784.742188 L 1049.050781 784.746094 L 1049.070312 784.746094 L 1049.121094 784.75 L 1049.148438 784.75 L 1049.351562 784.761719 L 1049.421875 784.761719 L 1049.691406 784.769531 C 1056.101562 784.835938 1061.359375 779.683594 1061.421875 773.269531 C 1061.488281 766.855469 1056.339844 761.601562 1049.921875 761.535156 Z M 1044.25 783.355469 L 1044.261719 783.363281 Z M 1041.160156 765.394531 L 1041.148438 765.398438 C 1039.109375 762.273438 1036.570312 758.882812 1033.621094 755.421875 Z M 1026.160156 881.488281 C 1027.039062 882.53125 1027.648438 883.65625 1027.980469 884.882812 C 1029.109375 889.070312 1027.929688 895.207031 1024.058594 904.1875 L 989.632812 976.617188 C 988.425781 969.1875 988.148438 960.824219 989.203125 952.027344 C 991.230469 935.085938 998.335938 916.808594 1013.410156 900.832031 C 1019.390625 894.492188 1023.5 887.992188 1026.160156 881.488281 Z M 918.550781 958.078125 L 995.695312 819.132812 C 1007.03125 833.769531 1024.5 863.921875 1000.859375 888.980469 C 982.894531 908.015625 974.429688 929.8125 972.007812 950.023438 C 970.789062 960.207031 971.136719 970.054688 972.601562 979.003906 C 956.003906 968.5625 937.496094 961.566406 918.550781 958.078125 "/>
<path fill-rule="nonzero" fill="rgb(0%, 0%, 0%)" fill-opacity="1" d="M 1297.710938 1110.039062 C 1297.671875 1110.753906 1297.640625 1111.476562 1297.621094 1112.203125 L 1297.609375 1112.238281 C 1297.589844 1113.070312 1297.570312 1113.832031 1297.558594 1114.480469 C 1297.25 1145.550781 1309.539062 1173.792969 1329.679688 1194.339844 C 1349.761719 1214.832031 1377.640625 1227.679688 1408.578125 1228.058594 L 1408.578125 1228.085938 L 1408.820312 1228.0625 C 1439.890625 1228.375 1468.128906 1216.078125 1488.679688 1195.945312 C 1509.171875 1175.863281 1522.019531 1147.984375 1522.390625 1117.042969 L 1522.421875 1117.046875 L 1522.398438 1116.804688 C 1522.410156 1115.78125 1522.410156 1115.042969 1522.398438 1114.527344 C 1522.390625 1113.445312 1522.378906 1112.742188 1522.359375 1112.328125 L 1522.121094 1103.992188 L 1466.511719 1103.429688 L 1340.199219 1102.152344 L 1340.199219 1102.15625 L 1298.109375 1101.730469 Z M 1339.480469 1119.4375 C 1340.421875 1137.160156 1347.890625 1153.171875 1359.550781 1165.066406 C 1372.140625 1177.914062 1389.609375 1185.976562 1409 1186.238281 L 1409 1186.265625 L 1409.238281 1186.242188 C 1428.761719 1186.4375 1446.5 1178.71875 1459.398438 1166.074219 C 1471.308594 1154.410156 1479.101562 1138.550781 1480.390625 1120.859375 L 1504.960938 1121.109375 C 1503.558594 1145.570312 1492.949219 1167.523438 1476.558594 1183.585938 C 1459.21875 1200.578125 1435.429688 1210.976562 1409.28125 1210.777344 L 1409.28125 1210.75 L 1409.039062 1210.777344 C 1382.769531 1210.511719 1359.078125 1199.617188 1342.039062 1182.226562 C 1325.96875 1165.828125 1315.800781 1143.660156 1314.910156 1119.1875 Z M 1383.199219 1119.878906 C 1385.21875 1132.726562 1396.269531 1142.613281 1409.710938 1142.75 C 1423.140625 1142.886719 1434.390625 1133.222656 1436.660156 1120.417969 L 1463.058594 1120.683594 C 1461.839844 1133.597656 1456.03125 1145.152344 1447.289062 1153.714844 C 1437.589844 1163.21875 1424.308594 1169.039062 1409.699219 1168.957031 L 1409.710938 1168.929688 L 1409.46875 1168.953125 C 1394.738281 1168.808594 1381.460938 1162.703125 1371.910156 1152.953125 C 1363.328125 1144.203125 1357.761719 1132.53125 1356.808594 1119.609375 L 1383.199219 1119.878906 "/>
<path fill="none" stroke-width="297.402" stroke-linecap="round" stroke-linejoin="round" stroke="rgb(0%, 0%, 0%)" stroke-opacity="1" stroke-miterlimit="2.61313" d="M 11697.5 6504.101562 L 11779.414062 6419.414062 L 11868.28125 6128.984375 L 11011.796875 6128.867188 L 11506.914062 6294.804688 L 11467.695312 6474.6875 Z M 11697.5 6504.101562 " transform="matrix(0.1, 0, 0, -0.1, 0, 1680)"/>
<path fill-rule="evenodd" fill="rgb(80.859375%, 56.054688%, 39.208984%)" fill-opacity="1" d="M 1169.75 1029.589844 L 1177.941406 1038.058594 L 1186.828125 1067.101562 L 1101.179688 1067.113281 L 1150.691406 1050.519531 L 1146.769531 1032.53125 L 1169.75 1029.589844 "/>
<path fill-rule="evenodd" fill="rgb(0%, 0%, 0%)" fill-opacity="1" d="M 1304.980469 810.675781 L 1105.171875 806.449219 C 1105.171875 806.449219 1037.53125 811.457031 1068.480469 870.070312 C 1099.429688 928.683594 1139.390625 1042.3125 1139.390625 1042.3125 L 1191.738281 1041.722656 L 1133.578125 870.386719 C 1133.578125 870.386719 1368.429688 927.96875 1304.980469 810.675781 "/>
<path fill-rule="evenodd" fill="rgb(98.4375%, 78.125%, 65.039062%)" fill-opacity="1" d="M 1154.359375 606.519531 L 1140.921875 584.28125 C 1140.921875 584.28125 1100.828125 598.148438 1095.910156 585.550781 C 1091 572.949219 1089.089844 553.109375 1089.089844 553.109375 L 1072.191406 549.320312 L 1083.5 528.460938 C 1083.5 528.460938 1086.621094 495.46875 1091.988281 484.410156 C 1095.160156 487.511719 1099.421875 490.929688 1105.089844 494.671875 C 1138.519531 516.710938 1108.289062 560.441406 1117.160156 575.71875 C 1122.410156 584.761719 1153.988281 579.660156 1178.890625 573.988281 L 1193.308594 582.53125 C 1193.308594 582.53125 1172.910156 617.351562 1154.359375 606.519531 "/>
<path fill="none" stroke-width="148.701" stroke-linecap="butt" stroke-linejoin="miter" stroke="rgb(0%, 0%, 0%)" stroke-opacity="1" stroke-miterlimit="2.61313" d="M 11543.59375 10734.804688 L 11409.21875 10957.1875 C 11409.21875 10957.1875 11008.28125 10818.515625 10959.101562 10944.492188 C 10910 11070.507812 10890.898438 11268.90625 10890.898438 11268.90625 L 10721.914062 11306.796875 L 10835 11515.390625 C 10835 11515.390625 10866.210938 11845.3125 10919.882812 11955.898438 C 10951.601562 11924.882812 10994.21875 11890.703125 11050.898438 11853.28125 C 11385.195312 11632.890625 11082.890625 11195.585938 11171.601562 11042.8125 C 11224.101562 10952.382812 11539.882812 11003.398438 11788.90625 11060.117188 L 11933.085938 10974.6875 C 11933.085938 10974.6875 11729.101562 10626.484375 11543.59375 10734.804688 Z M 11543.59375 10734.804688 " transform="matrix(0.1, 0, 0, -0.1, 0, 1680)"/>
<path fill-rule="evenodd" fill="rgb(0%, 0%, 0%)" fill-opacity="1" d="M 1082.179688 453.878906 C 1082.179688 453.878906 1152.269531 487.28125 1133.539062 506.570312 C 1114.808594 525.851562 1107.390625 499.160156 1107.390625 499.160156 L 1037.308594 487.050781 L 1075.488281 471.339844 L 1082.179688 453.878906 "/>
<path fill-rule="evenodd" fill="rgb(0%, 0%, 0%)" fill-opacity="1" d="M 1085.160156 511.480469 C 1085.160156 511.480469 1107.058594 511.210938 1106.699219 515.460938 C 1106.328125 519.699219 1100.558594 523.351562 1097.078125 518.550781 C 1093.589844 513.761719 1085.160156 511.480469 1085.160156 511.480469 "/>
<path fill-rule="evenodd" fill="rgb(54.492188%, 86.326599%, 87.889099%)" fill-opacity="1" d="M 1285.890625 722.316406 L 1314.011719 812.597656 L 1182.679688 811.144531 L 1171.511719 752.171875 L 1214.191406 684.140625 L 1140.640625 681.933594 L 1149.539062 605.949219 L 1181.550781 600.269531 L 1203.71875 579.078125 L 1260.53125 659.671875 L 1285.890625 722.316406 "/>
<path fill-rule="evenodd" fill="rgb(98.4375%, 78.125%, 65.039062%)" fill-opacity="1" d="M 1207.988281 684.078125 C 1207.988281 684.078125 1204.300781 770.160156 1189.441406 773.433594 C 1174.578125 776.707031 1079.621094 767.429688 1079.621094 767.429688 C 1079.621094 767.429688 1065.550781 789.339844 1045.558594 785.429688 C 1025.558594 781.515625 1031.699219 763.9375 1031.699219 763.9375 L 1073.441406 747.804688 L 1150.679688 735.433594 L 1155.949219 681.96875 L 1207.988281 684.078125 "/>
<path fill="none" stroke-width="148.701" stroke-linecap="butt" stroke-linejoin="miter" stroke="rgb(0%, 0%, 0%)" stroke-opacity="1" stroke-miterlimit="2.61313" d="M 12079.882812 9959.21875 C 12079.882812 9959.21875 12043.007812 9098.398438 11894.414062 9065.664062 C 11745.78125 9032.929688 10796.210938 9125.703125 10796.210938 9125.703125 C 10796.210938 9125.703125 10655.507812 8906.601562 10455.585938 8945.703125 C 10255.585938 8984.84375 10316.992188 9160.625 10316.992188 9160.625 L 10734.414062 9321.953125 L 11506.796875 9445.664062 L 11559.492188 9980.3125 Z M 12079.882812 9959.21875 " transform="matrix(0.1, 0, 0, -0.1, 0, 1680)"/>
<path fill-rule="evenodd" fill="rgb(99.609375%, 99.609375%, 99.609375%)" fill-opacity="1" d="M 1192.03125 594.878906 C 1192.03125 594.878906 1251.941406 627.539062 1293.441406 808.273438 L 1314.949219 813.023438 L 1263.101562 658.21875 L 1198.691406 583.519531 L 1192.03125 594.878906 "/>
<path fill-rule="nonzero" fill="rgb(0%, 0%, 0%)" fill-opacity="1" d="M 1169.589844 777.042969 L 1175.269531 817.554688 L 1324.679688 821.871094 L 1322.078125 812.261719 C 1322.039062 812.113281 1308.601562 761.160156 1283.351562 691.496094 C 1257.570312 620.410156 1202.210938 574.441406 1202.050781 574.308594 L 1194.199219 567.699219 L 1190.398438 577.238281 C 1180.839844 601.300781 1149.46875 604.78125 1149.378906 604.789062 L 1143.5 605.488281 L 1134.488281 690.417969 L 1227.949219 692.355469 L 1230.511719 646.339844 L 1215.691406 645.53125 L 1213.929688 677.238281 L 1150.941406 675.941406 L 1157.039062 618.480469 C 1167.121094 616.210938 1187.671875 609.589844 1199.390625 591.851562 C 1214.421875 606.109375 1250.378906 644.058594 1269.410156 696.550781 C 1287.921875 747.617188 1300.050781 788.660156 1305.078125 806.480469 L 1188.21875 803.101562 L 1184.28125 775.011719 L 1169.589844 777.042969 "/>
<path fill-rule="evenodd" fill="rgb(99.609375%, 99.609375%, 99.609375%)" fill-opacity="1" d="M 1127.140625 436.449219 C 1127.140625 436.449219 1245.050781 434.25 1209.789062 558.390625 C 1209.789062 558.390625 1248.339844 525.078125 1221.070312 471.261719 C 1193.800781 417.449219 1127.140625 436.449219 1127.140625 436.449219 "/>
<path fill-rule="nonzero" fill="rgb(0%, 0%, 0%)" fill-opacity="1" d="M 1092.71875 466.761719 C 1117.339844 439.300781 1146.96875 432.589844 1171.929688 439.179688 C 1182.289062 441.910156 1191.890625 446.941406 1200.019531 453.71875 C 1208.109375 460.46875 1214.710938 468.941406 1219.121094 478.609375 C 1229.371094 501.070312 1227.769531 530.179688 1205.640625 559.460938 C 1192.699219 563.199219 1128.890625 581.140625 1123.589844 571.988281 C 1121.800781 568.910156 1123.410156 561.019531 1125.25 551.96875 C 1129.519531 531.03125 1134.761719 505.328125 1109.179688 488.46875 C 1084.769531 472.371094 1091.519531 467.800781 1091.539062 467.78125 Z M 1175.710938 424.851562 C 1145.839844 416.96875 1110.710938 424.628906 1081.910156 456.558594 C 1077.878906 460.140625 1063.710938 476.269531 1101.011719 500.871094 C 1118.230469 512.21875 1114.089844 532.519531 1110.71875 549.050781 C 1108.269531 561.058594 1106.140625 571.53125 1110.730469 579.441406 C 1122.570312 599.828125 1211.859375 573.101562 1212.109375 573.019531 L 1215.851562 570.46875 C 1243.300781 535.570312 1245.210938 500.070312 1232.628906 472.480469 C 1227.269531 460.730469 1219.28125 450.460938 1209.5 442.308594 C 1199.769531 434.191406 1188.21875 428.160156 1175.710938 424.851562 "/>
<path fill-rule="evenodd" fill="rgb(0%, 68.554688%, 93.75%)" fill-opacity="1" d="M 1291.890625 564.699219 L 1240.03125 587.21875 C 1229.089844 591.96875 1224.019531 604.808594 1228.769531 615.75 L 1296.019531 770.617188 C 1306.539062 794.839844 1334.96875 806.054688 1359.191406 795.535156 L 1373.398438 789.367188 C 1389.808594 782.238281 1397.410156 762.984375 1390.28125 746.574219 L 1315.320312 573.949219 C 1311.421875 564.960938 1300.871094 560.800781 1291.890625 564.699219 "/>
<path fill-rule="evenodd" fill="rgb(3.529358%, 48.631287%, 59.959412%)" fill-opacity="1" d="M 1291.148438 596.261719 L 1260.75 609.460938 C 1255.628906 611.691406 1253.261719 617.691406 1255.480469 622.808594 L 1283.800781 688.027344 C 1286.019531 693.144531 1292.03125 695.515625 1297.148438 693.292969 L 1327.550781 680.089844 C 1332.671875 677.871094 1335.039062 671.859375 1332.820312 666.738281 L 1304.5 601.53125 C 1302.28125 596.410156 1296.269531 594.039062 1291.148438 596.261719 "/>
<path fill-rule="evenodd" fill="rgb(3.529358%, 48.631287%, 59.959412%)" fill-opacity="1" d="M 1321.710938 571.171875 L 1315.320312 573.949219 L 1375.480469 712.472656 L 1381.871094 709.695312 C 1390.070312 706.132812 1393.871094 696.507812 1390.308594 688.300781 L 1343.109375 579.609375 C 1339.550781 571.398438 1329.921875 567.609375 1321.710938 571.171875 "/>
<path fill-rule="nonzero" fill="rgb(0%, 0%, 0%)" fill-opacity="1" d="M 1318.96875 564.808594 L 1306.210938 570.351562 L 1371.878906 721.582031 L 1384.609375 716.054688 C 1390.488281 713.5 1394.789062 708.792969 1396.96875 703.265625 C 1399.140625 697.765625 1399.210938 691.421875 1396.671875 685.558594 L 1349.46875 576.871094 C 1346.910156 570.988281 1342.210938 566.691406 1336.679688 564.511719 C 1331.179688 562.339844 1324.828125 562.269531 1318.96875 564.808594 Z M 1324.429688 577.539062 L 1324.460938 577.53125 C 1326.800781 576.511719 1329.371094 576.550781 1331.628906 577.441406 C 1333.859375 578.320312 1335.75 580.03125 1336.75 582.351562 L 1383.949219 691.046875 C 1384.96875 693.386719 1384.929688 695.960938 1384.039062 698.214844 C 1383.160156 700.441406 1381.449219 702.332031 1379.128906 703.339844 L 1379.070312 703.367188 L 1324.429688 577.539062 "/>
<path fill-rule="evenodd" fill="rgb(0%, 0%, 0%)" fill-opacity="1" d="M 1227.421875 620.351562 L 1177.738281 603.21875 L 1199.230469 579.671875 L 1232.75 594.210938 L 1226.230469 602.078125 L 1227.421875 620.351562 "/>
<path fill-rule="evenodd" fill="rgb(0%, 0%, 0%)" fill-opacity="1" d="M 1273.949219 724.9375 L 1255.46875 731.550781 L 1250.320312 753.433594 L 1276.691406 761.558594 L 1293.550781 767.394531 L 1273.949219 724.9375 "/>
<path fill-rule="evenodd" fill="rgb(0%, 0%, 0%)" fill-opacity="1" d="M 1262.160156 738.605469 L 1209.558594 716.710938 L 1208.53125 732.558594 L 1258.210938 750.074219 L 1262.160156 738.605469 "/>
<path fill-rule="evenodd" fill="rgb(99.609375%, 99.609375%, 99.609375%)" fill-opacity="1" d="M 1290.609375 568.390625 L 1383.550781 780.597656 C 1383.550781 780.597656 1400.589844 759.683594 1382.769531 726.382812 C 1364.960938 693.078125 1308.421875 562.191406 1308.421875 562.191406 L 1290.609375 568.390625 "/>
<path fill-rule="nonzero" fill="rgb(0%, 0%, 0%)" fill-opacity="1" d="M 1288.949219 557.910156 L 1237.089844 580.429688 C 1229.71875 583.628906 1224.339844 589.53125 1221.601562 596.460938 C 1218.878906 603.371094 1218.789062 611.328125 1221.980469 618.679688 L 1289.230469 773.550781 C 1295.308594 787.5625 1306.558594 797.804688 1319.769531 803.019531 C 1332.949219 808.21875 1348.128906 808.40625 1362.128906 802.332031 L 1376.328125 796.160156 C 1386.441406 791.773438 1393.828125 783.671875 1397.578125 774.152344 C 1401.320312 764.660156 1401.460938 753.726562 1397.078125 743.640625 L 1322.121094 571.011719 C 1319.339844 564.621094 1314.21875 559.949219 1308.210938 557.578125 C 1302.230469 555.21875 1295.328125 555.140625 1288.949219 557.910156 Z M 1242.960938 594.019531 L 1294.820312 571.5 C 1297.429688 570.359375 1300.300781 570.410156 1302.808594 571.398438 C 1305.289062 572.378906 1307.398438 574.289062 1308.53125 576.878906 L 1383.488281 749.507812 C 1386.230469 755.828125 1386.128906 762.730469 1383.761719 768.75 C 1381.390625 774.742188 1376.769531 779.832031 1370.46875 782.570312 L 1356.261719 788.738281 C 1346.03125 793.183594 1334.878906 793.023438 1325.171875 789.191406 C 1315.480469 785.371094 1307.25 777.894531 1302.820312 767.683594 L 1235.570312 612.820312 C 1234.011719 609.230469 1234.070312 605.300781 1235.429688 601.871094 C 1236.769531 598.460938 1239.390625 595.570312 1242.960938 594.019531 "/>
<path fill-rule="nonzero" fill="rgb(0%, 0%, 0%)" fill-opacity="1" d="M 1288.21875 589.46875 L 1257.808594 602.671875 C 1253.351562 604.609375 1250.101562 608.171875 1248.449219 612.351562 C 1246.808594 616.511719 1246.761719 621.308594 1248.691406 625.75 L 1277 690.960938 C 1278.941406 695.421875 1282.511719 698.675781 1286.691406 700.324219 C 1290.839844 701.964844 1295.640625 702.015625 1300.078125 700.089844 L 1330.488281 686.886719 C 1334.949219 684.949219 1338.199219 681.382812 1339.851562 677.199219 C 1341.488281 673.050781 1341.539062 668.25 1339.621094 663.808594 L 1311.300781 598.589844 C 1309.359375 594.128906 1305.800781 590.878906 1301.609375 589.230469 C 1297.460938 587.589844 1292.660156 587.539062 1288.21875 589.46875 Z M 1263.679688 616.261719 L 1294.089844 603.058594 C 1294.761719 602.761719 1295.53125 602.78125 1296.210938 603.050781 C 1296.871094 603.308594 1297.421875 603.800781 1297.710938 604.460938 L 1326.019531 669.671875 C 1326.320312 670.351562 1326.300781 671.121094 1326.03125 671.800781 C 1325.769531 672.460938 1325.28125 673.011719 1324.621094 673.289062 L 1294.21875 686.496094 C 1293.539062 686.789062 1292.769531 686.769531 1292.089844 686.5 C 1291.429688 686.242188 1290.878906 685.75 1290.601562 685.09375 L 1262.28125 619.878906 C 1261.980469 619.199219 1262 618.441406 1262.269531 617.75 C 1262.53125 617.101562 1263.019531 616.550781 1263.679688 616.261719 "/>
<path fill-rule="nonzero" fill="rgb(0%, 0%, 0%)" fill-opacity="1" d="M 1374.109375 723.140625 L 1292.730469 759.324219 L 1298.769531 772.859375 L 1380.148438 736.675781 L 1374.109375 723.140625 "/>
<path fill-rule="evenodd" fill="rgb(0%, 0%, 0%)" fill-opacity="1" d="M 1390.910156 506.820312 C 1348.128906 506.820312 1313.460938 508.898438 1313.460938 511.46875 C 1313.460938 514.039062 1348.128906 516.121094 1390.910156 516.121094 C 1433.679688 516.121094 1468.351562 514.039062 1468.351562 511.46875 C 1468.351562 508.898438 1433.679688 506.820312 1390.910156 506.820312 "/>
<path fill-rule="evenodd" fill="rgb(0%, 0%, 0%)" fill-opacity="1" d="M 978.878906 661.71875 C 936.105469 661.71875 901.433594 663.800781 901.433594 666.371094 C 901.433594 668.929688 936.105469 671.011719 978.878906 671.011719 C 1021.648438 671.011719 1056.328125 668.929688 1056.328125 666.371094 C 1056.328125 663.800781 1021.648438 661.71875 978.878906 661.71875 "/>
<path fill-rule="evenodd" fill="rgb(0%, 0%, 0%)" fill-opacity="1" d="M 1695.28125 937.433594 C 1672.609375 937.433594 1654.230469 939.34375 1654.230469 941.695312 C 1654.230469 944.050781 1672.609375 945.960938 1695.28125 945.960938 C 1717.949219 945.960938 1736.328125 944.050781 1736.328125 941.695312 C 1736.328125 939.34375 1717.949219 937.433594 1695.28125 937.433594 "/>
<path fill-rule="evenodd" fill="rgb(0%, 0%, 0%)" fill-opacity="1" d="M 1452.859375 632.289062 C 1410.089844 632.289062 1375.421875 634.371094 1375.421875 636.929688 C 1375.421875 639.5 1410.089844 641.578125 1452.859375 641.578125 C 1495.640625 641.578125 1530.308594 639.5 1530.308594 636.929688 C 1530.308594 634.371094 1495.640625 632.289062 1452.859375 632.289062 "/>
<path fill-rule="evenodd" fill="rgb(0%, 0%, 0%)" fill-opacity="1" d="M 1006.761719 420.078125 C 963.988281 420.078125 929.3125 422.160156 929.3125 424.730469 C 929.3125 427.289062 963.988281 429.371094 1006.761719 429.371094 C 1049.539062 429.371094 1084.210938 427.289062 1084.210938 424.730469 C 1084.210938 422.160156 1049.539062 420.078125 1006.761719 420.078125 "/>
<path fill-rule="evenodd" fill="rgb(0%, 0%, 0%)" fill-opacity="1" d="M 822.433594 791.832031 C 804.46875 791.832031 789.90625 793.910156 789.90625 796.480469 C 789.90625 799.046875 804.46875 801.128906 822.433594 801.128906 C 840.398438 801.128906 854.964844 799.046875 854.964844 796.480469 C 854.964844 793.910156 840.398438 791.832031 822.433594 791.832031 "/>
<path fill-rule="evenodd" fill="rgb(0%, 0%, 0%)" fill-opacity="1" d="M 860.382812 565.679688 C 840.28125 565.679688 823.984375 567.761719 823.984375 570.328125 C 823.984375 572.898438 840.28125 574.980469 860.382812 574.980469 C 880.488281 574.980469 896.785156 572.898438 896.785156 570.328125 C 896.785156 567.761719 880.488281 565.679688 860.382812 565.679688 "/>
<path fill-rule="evenodd" fill="rgb(0%, 0%, 0%)" fill-opacity="1" d="M 1332.039062 922.71875 C 1307.238281 922.71875 1287.121094 923.925781 1287.121094 925.414062 C 1287.121094 926.902344 1307.238281 928.109375 1332.039062 928.109375 C 1356.851562 928.109375 1376.960938 926.902344 1376.960938 925.414062 C 1376.960938 923.925781 1356.851562 922.71875 1332.039062 922.71875 "/>
<path fill-rule="evenodd" fill="rgb(0%, 0%, 0%)" fill-opacity="1" d="M 1479.578125 410.789062 C 1458.839844 410.789062 1442.019531 412.871094 1442.019531 415.429688 C 1442.019531 418 1458.839844 420.078125 1479.578125 420.078125 C 1500.328125 420.078125 1517.148438 418 1517.148438 415.429688 C 1517.148438 412.871094 1500.328125 410.789062 1479.578125 410.789062 "/>
<path fill-rule="evenodd" fill="rgb(0%, 0%, 0%)" fill-opacity="1" d="M 1056.328125 966.863281 C 1038.359375 966.863281 1023.800781 968.945312 1023.800781 971.511719 C 1023.800781 974.078125 1038.359375 976.160156 1056.328125 976.160156 C 1074.289062 976.160156 1088.859375 974.078125 1088.859375 971.511719 C 1088.859375 968.945312 1074.289062 966.863281 1056.328125 966.863281 "/>
<path fill-rule="evenodd" fill="rgb(0%, 0%, 0%)" fill-opacity="1" d="M 1219.738281 465 C 1199.640625 465 1183.339844 467.078125 1183.339844 469.648438 C 1183.339844 472.210938 1199.640625 474.289062 1219.738281 474.289062 C 1239.851562 474.289062 1256.148438 472.210938 1256.148438 469.648438 C 1256.148438 467.078125 1239.851562 465 1219.738281 465 "/>
</svg>
